<svg width="30" height="38" viewBox="0 0 30 38" fill="none" xmlns="http://www.w3.org/2000/svg">
<path d="M0.10274 23.4399C-0.0342468 23.3006 -0.0342468 23.1613 0.10274 23.022C0.376662 22.7434 0.719183 22.639 1.13009 22.7086C1.54105 22.7783 1.78078 22.8479 1.84928 22.9175C2.32873 23.1265 2.85958 23.5966 3.44173 24.3279C4.02387 25.0591 4.48623 25.564 4.82875 25.8426C6.4726 27.2355 8.15064 27.34 9.86298 26.156C9.99997 25.6685 10.2226 25.2506 10.5308 24.9024C10.8389 24.5541 11.1301 24.3104 11.4041 24.1711C11.6781 24.0318 12.1576 23.8229 12.8425 23.5443C10.5822 23.3354 8.74998 22.9349 7.34586 22.3429C5.94174 21.7509 4.8287 21.0023 4.00677 20.0969C2.91087 18.8433 2.24303 17.2067 2.00331 15.187C1.76353 13.1673 1.91766 11.3217 2.46567 9.65024C2.87663 8.60558 3.45882 7.66543 4.2122 6.82965C3.66425 5.08854 3.76699 3.10367 4.52042 0.875054C6.71222 1.01434 8.69853 1.78043 10.4794 3.17332C13.904 2.26794 17.4657 2.23312 21.1643 3.06885C21.6438 2.72063 22.3801 2.28538 23.3732 1.76299C24.3664 1.24066 25.6164 0.944644 27.1233 0.875C27.3972 1.64109 27.5856 2.54646 27.6884 3.59113C27.7911 4.6358 27.7398 5.61082 27.5343 6.51619C29.1096 8.18766 29.9315 10.4163 30 13.2021C30 15.4307 29.6233 17.2762 28.8699 18.7388C28.1165 20.2013 26.7809 21.4201 24.863 22.3951C23.5617 23.0219 21.8493 23.4049 19.726 23.5442C20.685 24.0317 21.387 24.5366 21.8322 25.059C22.2775 25.5813 22.5685 26.3996 22.7056 27.5139V30.8047L22.8083 33.9909C23.0138 34.3392 23.2535 34.6351 23.5275 34.8789C23.8015 35.1227 24.0412 35.2968 24.2467 35.4013C24.4521 35.5057 24.5207 35.6625 24.4521 35.8714C24.3836 36.0803 24.1097 36.1848 23.6302 36.1848C22.4658 36.1848 21.5412 35.7669 20.8563 34.9311C20.6508 34.5829 20.548 34.1651 20.548 33.6776V28.6632C20.548 28.106 20.411 27.7055 20.1371 27.4618C19.8631 27.218 19.5891 27.0613 19.3152 26.9916V33.573C19.3152 34.757 19.4521 35.5231 19.7261 35.8713C20.0001 36.2195 20.1713 36.5678 20.2399 36.916C20.3084 36.9856 20.257 37.0378 20.0857 37.0726C19.9145 37.1074 19.6234 37.0552 19.2124 36.916C18.322 36.707 17.7056 36.2369 17.3631 35.5056C17.0206 34.7744 16.8494 33.9908 16.8494 33.1551V26.6783H15.5138V33.1553C15.5138 33.991 15.3425 34.792 15 35.558C14.5206 36.5331 13.6301 37.0554 12.3288 37.125C12.1233 37.0554 12.0206 36.9857 12.0206 36.9161C12.0891 36.8464 12.2946 36.4983 12.637 35.8715C12.7055 35.7322 12.7912 35.4536 12.8939 35.0357C12.9967 34.6179 13.048 34.1303 13.048 33.5732V26.9917C12.7741 27.0614 12.5172 27.2181 12.2775 27.4619C12.0377 27.7057 11.9178 28.1061 11.9178 28.6633V33.6777C11.9178 34.1651 11.8151 34.583 11.6096 34.9313C10.9932 35.767 10.0685 36.1849 8.83568 36.1849C8.35622 36.1849 8.08225 36.0804 8.01376 35.8715C7.94521 35.7322 7.96236 35.6103 8.06515 35.5059C8.16795 35.4014 8.32203 35.2795 8.52751 35.1402C8.73299 35.0009 8.86998 34.8964 8.93847 34.8268C9.21245 34.6179 9.41787 34.3393 9.55491 33.9911C9.7604 33.7125 9.81174 32.9812 9.709 31.7973C9.60626 30.6133 9.58911 29.8472 9.6576 29.499C7.87672 30.1258 6.06169 29.8123 4.21231 28.5588C3.66436 28.0016 3.11641 27.2007 2.56846 26.1561C2.1575 25.3899 1.33557 24.4845 0.10274 23.4399Z" fill="white"/>
</svg>
