<svg width="36" height="32" viewBox="0 0 36 32" fill="none" xmlns="http://www.w3.org/2000/svg">
<path d="M13.5357 29.2746C12.46 29.2746 12.653 28.8609 12.2669 27.8403L9.1225 17.4693L28.6509 5.27788L30.9402 5.88469L29.037 11.0702L13.5357 29.2746Z" fill="#ACACAC"/>
<path d="M13.5357 29.2746C14.3632 29.2746 14.7218 28.8884 15.1907 28.4471C15.9078 27.7575 25.1203 18.7933 25.1203 18.7933L19.4659 17.4141L14.2253 20.724L13.5357 28.9988L13.5357 29.2746Z" fill="#AAAAAA"/>
<path d="M14.0874 20.8344L27.4373 30.6813C28.9543 31.5088 30.0576 31.095 30.4438 29.2746L35.8775 3.67809C36.4292 1.44391 35.0224 0.450945 33.5606 1.11292L1.67525 13.4147C-0.503766 14.2973 -0.476184 15.511 1.28909 16.035L9.48109 18.6002L28.4302 6.65699C29.3129 6.10534 30.1404 6.40875 29.4784 7.01556L14.0874 20.8344Z" fill="white"/>
</svg>
